<svg width="64" height="65" viewBox="0 0 64 65" fill="none" xmlns="http://www.w3.org/2000/svg">
<rect y="0.5" width="64" height="64" rx="32" fill="#F7C548"/>
<path d="M38.375 37.4219H39.7812V40.2344H38.375V37.4219Z" fill="#252851"/>
<path d="M41.8906 28.9844H39.7812V28.2812C39.7812 26.3428 38.204 24.7656 36.2656 24.7656H31.25V22.6094C31.25 21.4462 30.3038 20.5 29.1406 20.5H22.1094C20.9462 20.5 20 21.4462 20 22.6094V28.2812C20 30.2197 21.5772 31.7969 23.5156 31.7969H27.7344C29.6728 31.7969 31.25 30.2197 31.25 28.2812V26.1719H36.2656C37.4288 26.1719 38.375 27.1181 38.375 28.2812V28.9844H36.2656C35.1025 28.9844 34.1562 29.9306 34.1562 31.0938V42.3438C34.1562 43.5069 35.1025 44.5 36.2656 44.5H41.8906C43.0538 44.5 44 43.5069 44 42.3438V31.0938C44 29.9306 43.0538 28.9844 41.8906 28.9844ZM26.3281 27.5781H24.9219C23.7587 27.5781 22.8125 26.6319 22.8125 25.4688C22.8125 24.3056 23.7587 23.3594 24.9219 23.3594H26.3281C27.4913 23.3594 28.4375 24.3056 28.4375 25.4688C28.4375 26.6319 27.4913 27.5781 26.3281 27.5781ZM41.1875 40.9375C41.1875 41.3261 40.873 41.6406 40.4844 41.6406H37.6719C37.2832 41.6406 36.9688 41.3261 36.9688 40.9375C36.9688 40.7544 36.9688 32.202 36.9688 32.5C36.9688 32.1114 37.2832 31.7969 37.6719 31.7969H40.4844C40.873 31.7969 41.1875 32.1114 41.1875 32.5C41.1875 32.6831 41.1875 41.2355 41.1875 40.9375Z" fill="#252851"/>
<path d="M38.375 33.2031H39.7812V36.0156H38.375V33.2031Z" fill="#252851"/>
<path d="M23.5156 33.2031C23.2749 33.2031 23.0442 33.1656 22.8125 33.1321V40.9375C22.8125 41.09 22.862 41.2376 22.9533 41.3591L25.0626 44.2185C25.1952 44.3956 25.4039 44.5 25.625 44.5C25.8461 44.5 26.0548 44.3956 26.1874 44.2185L28.2967 41.3591C28.5068 41.0796 28.4787 40.6876 28.2315 40.4404L27.3224 39.5313L28.2315 38.6221C28.5062 38.3475 28.5062 37.9025 28.2315 37.6279L27.3224 36.7188L28.2315 35.8096C28.3634 35.6778 28.4375 35.4993 28.4375 35.3125V33.1321C28.2059 33.1656 27.9751 33.2031 27.7344 33.2031H23.5156Z" fill="#252851"/>
<path d="M26.3281 24.7656H24.9219C24.5339 24.7656 24.2188 25.0808 24.2188 25.4688C24.2188 25.8567 24.5339 26.1719 24.9219 26.1719H26.3281C26.7161 26.1719 27.0312 25.8567 27.0312 25.4688C27.0312 25.0808 26.7161 24.7656 26.3281 24.7656Z" fill="#252851"/>
</svg>
