<svg width="64" height="65" viewBox="0 0 64 65" fill="none" xmlns="http://www.w3.org/2000/svg">
<rect y="0.5" width="64" height="64" rx="32" fill="#F7C548"/>
<path d="M36.2188 26.125H40.7286L35.5156 20.912V25.4219C35.5156 25.8098 35.8308 26.125 36.2188 26.125Z" fill="#252851"/>
<path d="M24.9688 44.5H39.0312C40.1944 44.5 41.1406 43.5538 41.1406 42.3906V27.5312H36.2188C35.0556 27.5312 34.1094 26.585 34.1094 25.4219V20.5H24.9688C23.8056 20.5 22.8594 21.4462 22.8594 22.6094V42.3906C22.8594 43.5538 23.8056 44.5 24.9688 44.5ZM29.1875 31.7969H36.2188C36.6074 31.7969 36.9219 32.1114 36.9219 32.5C36.9219 32.8886 36.6074 33.2031 36.2188 33.2031H29.1875C28.7989 33.2031 28.4844 32.8886 28.4844 32.5C28.4844 32.1114 28.7989 31.7969 29.1875 31.7969ZM29.1875 34.6094H36.2188C36.6074 34.6094 36.9219 34.9239 36.9219 35.3125C36.9219 35.7011 36.6074 36.0156 36.2188 36.0156H29.1875C28.7989 36.0156 28.4844 35.7011 28.4844 35.3125C28.4844 34.9239 28.7989 34.6094 29.1875 34.6094ZM29.1875 37.4219H36.2188C36.6074 37.4219 36.9219 37.7364 36.9219 38.125C36.9219 38.5136 36.6074 38.8281 36.2188 38.8281H29.1875C28.7989 38.8281 28.4844 38.5136 28.4844 38.125C28.4844 37.7364 28.7989 37.4219 29.1875 37.4219ZM26.375 31.7969C26.7633 31.7969 27.0781 32.1117 27.0781 32.5C27.0781 32.8883 26.7633 33.2031 26.375 33.2031C25.9867 33.2031 25.6719 32.8883 25.6719 32.5C25.6719 32.1117 25.9867 31.7969 26.375 31.7969ZM26.375 34.6094C26.7633 34.6094 27.0781 34.9242 27.0781 35.3125C27.0781 35.7008 26.7633 36.0156 26.375 36.0156C25.9867 36.0156 25.6719 35.7008 25.6719 35.3125C25.6719 34.9242 25.9867 34.6094 26.375 34.6094ZM26.375 37.4219C26.7633 37.4219 27.0781 37.7367 27.0781 38.125C27.0781 38.5133 26.7633 38.8281 26.375 38.8281C25.9867 38.8281 25.6719 38.5133 25.6719 38.125C25.6719 37.7367 25.9867 37.4219 26.375 37.4219Z" fill="#252851"/>
</svg>
