<svg width="74" height="57" viewBox="0 0 74 57" fill="none" xmlns="http://www.w3.org/2000/svg">
<path d="M73.4423 35.9567L73.6222 35.5205L73.4536 35.3989L72.604 34.0905L72.4905 33.4517L72.3332 31.626L72.1468 31.2564L71.6944 30.9921L71.3783 30.3176L70.9583 28.6995L70.887 28.2342L70.8675 27.8369L70.7816 27.5694L70.4979 27.4608L70.2433 27.3181L69.9126 26.6712L69.7618 26.5139L66.545 27.0506L65.9532 26.9922L65.5317 26.6598L65.115 26.4977L64.5329 26.7636L63.612 27.4608L62.6684 27.9261L62.4074 28.2342L61.8107 29.194L61.5156 29.4794L61.3713 29.7696L61.1703 29.9933L60.8314 29.9609L60.7633 29.7372L60.7374 29.3221L60.6255 28.9168L60.298 28.6995L61.2805 26.8803L61.7961 26.1848L62.4949 25.5427L63.218 25.1471L64.8167 24.6704L65.6095 24.2732L66.2094 23.602L66.5937 22.574L66.665 21.2786L66.3424 19.8048L65.8397 19.0525L65.008 18.3067L64.2006 18.0894L63.7758 18.8806L65.4863 20.7079L65.9759 21.705H65.8073L65.1718 20.7435L64.3757 20.4193L63.6963 19.9912L63.411 18.7104L63.3364 18.0343L63.1467 17.4652L62.9051 16.995L62.6603 16.6318L62.4479 16.387L62.0231 16.0238L61.8545 15.8179L61.6923 15.466L61.5124 14.717L61.394 14.4057L60.8509 13.5934L60.2137 12.9951L59.4954 12.6238L58.7107 12.4909L58.6588 12.1682L59.1436 10.4399L59.1971 9.59839L59.0009 9.16062L58.6523 8.86392L58.2535 8.68881L57.8984 8.63531L57.399 8.66773L56.8915 8.59639L56.684 8.18619L57.078 7.17285L57.2547 6.40271L57.3504 3.78909L57.0796 3.2881L56.0873 2.17747L55.8685 2.05749L55.6382 1.70242L55.1048 1.44949L54.0525 1.25979L53.5288 1.35383L52.5074 1.79808L51.9124 1.8986L51.4843 1.777L48.8772 0.290221L48.1978 0.115116L47.1845 0.791218L46.5408 0.595035L45.5761 0L44.9811 0.0729607L44.4023 0.37291L43.8818 0.84148L43.47 1.40895L43.0209 1.75916L41.1644 1.89698L38.1033 3.32701L34.6353 3.49887L34.1035 3.2881L32.9474 2.4985L32.5194 2.53417L32.3556 3.18757L32.187 5.31154L31.8757 5.76065L31.5677 6.09627L31.2499 6.86155L31.0391 7.72086L31.0537 8.31752L30.6581 8.60288L30.0728 9.36491L29.7696 9.60001L28.8454 9.72809L27.9213 9.60001L26.7523 8.98227L26.274 8.92228L25.0482 9.28871L24.6234 9.27412L24.8845 8.39859L24.664 8.44074L24.3462 8.58666L24.1095 8.87689L23.9036 9.20926L23.6847 9.45409L21.9709 9.71999L21.6515 9.96968L21.3807 10.2794L20.6219 11.4597L20.7322 11.8731L20.6609 11.9477L20.5198 12.0028L20.4112 12.332L20.5652 13.5237L20.5311 13.9112L20.3042 14.2841L19.7724 14.5013L19.5518 14.7932L19.4513 15.3461L19.5648 16.528V17.0112L19.2843 18.0164L18.8644 18.832L16.9172 21.2608L16.7469 21.8931L16.6934 23.0442L16.7826 23.3847L16.9253 23.5501L16.9236 23.649L16.5751 23.8014L16.2946 23.782L15.7903 23.5128L14.9845 23.7528L14.0636 23.5015L13.5837 23.782L12.6498 24.7094L11.7305 25.2331L10.8193 25.2979L9.93238 24.8277L9.16549 24.1565L8.79744 24.1386L7.87976 25.0709L6.54863 25.7341L6.98964 26.107L7.15339 26.1978L6.94748 26.8917L7.16798 27.37L7.61223 27.6586L8.07756 27.7899L8.30131 27.9391L8.57045 28.5212L8.78285 28.7546L9.00659 28.7644L9.42328 28.4466L9.62595 28.385L9.99724 28.6022L10.8566 29.3788L11.2781 29.541L11.7272 29.3221L12.1423 29.0173L12.4293 29.0886L12.5022 30.0193L11.39 30.3857L8.71962 32.9426L7.69168 33.3463L6.6378 33.2976L4.60463 32.8177L4.0404 33.4565L3.49563 34.2607L3.16649 34.9401L3.02868 35.133L2.72062 35.4281L2.05911 35.8156L0.633947 36.2355L0 36.5922L0.337241 36.9084L0.423172 37.2602L0.478298 37.6364L0.737714 38.0142L1.37977 38.7292L2.51958 40.3375L3.14866 40.9991L3.82314 41.3574L4.60463 41.3655L5.1721 42.8069L5.52232 43.4651L5.9844 43.9807L6.43189 44.1574L7.48415 44.3228L7.87651 44.6195L8.05486 45.3491L8.16025 47.3807L8.51695 48.086L9.04064 48.407L10.5128 48.6113L12.1082 48.4962L12.5865 48.5951L14.5208 50.0397L14.7073 50.3332L14.751 50.7385L14.837 51.1292L15.1548 51.353L18.0197 52.0323L18.5985 51.9124L19.701 51.0401L20.369 51.0952L20.0723 51.4908L20.1663 51.5557L20.4355 51.5151L20.656 51.58L20.8538 51.9756L20.9057 52.1799L21.024 52.2123L21.4213 52.1199L22.7232 52.5609L23.1691 52.5155L22.5562 51.2249V50.9282L22.7508 50.6818L23.5663 50.2051L23.6587 50.3218L23.5809 50.6493L23.542 51.0579L23.5485 51.5816L23.5177 51.9967L23.615 52.1734L23.983 51.9853L24.2343 51.7064L24.4272 51.3092L24.4986 50.8471L24.3786 50.3834L24.9039 50.1159L24.8699 49.8792L24.6202 49.6635L24.4905 49.4868L24.6413 49.0264L24.8164 48.728L25.0336 48.4994L25.3384 48.2659L26.8074 47.8784L27.383 47.4926L27.2111 46.7386L27.5824 46.2263L26.6274 45.4156L26.7896 44.7784L25.8897 44.3326L25.8249 43.8364L25.9546 43.804L26.154 43.8672L26.3015 43.6856L26.3356 43.6889L26.5431 43.2625L26.535 43.2381L26.4637 43.1668L26.3599 42.9333L26.295 42.6496L26.3356 42.4339L26.5204 42.3334L26.9906 42.4242L27.2079 42.4161L28.0899 41.7449L29.3934 39.6793L30.1782 38.9027L31.0197 38.8281L31.9276 39.2902L33.5911 40.691L33.7792 40.9974L34.024 41.7773L34.2397 41.9054L34.5607 41.9378L34.7277 42.1162L35.2984 43.6921L35.3454 44.3569L35.1298 44.819L34.6612 45.0719L35.6113 45.5648L35.8513 45.8404L35.9729 46.2279L36.0653 46.6705L36.2209 47.1342L36.6668 47.8622L37.1889 48.4783L37.7628 48.9647L38.3449 49.336L38.6659 49.3685L38.8816 49.1334L39.0842 48.8383L39.3712 48.6648L39.6906 48.7086L39.976 48.8691L40.5386 49.3539L41.1466 50.077L41.3022 50.8909L41.0493 51.7308L40.4462 52.5106L40.7315 53.036L40.6975 53.5532L40.2824 54.6216L40.6926 54.9637L41.4093 55.8376L41.7887 56.0468L41.9362 55.9576L42.2232 55.515L42.3626 55.3577L42.575 55.3123L42.9852 55.4874L43.196 55.515L45.4886 54.6654L46.2311 54.6216L46.249 54.7043L46.3544 54.8989L46.5133 55.1032L46.6851 55.2232H46.8764L47.5688 54.9718L48.1995 54.8697L48.3713 54.7059L48.4832 54.3249L48.4654 53.9439L48.4184 53.5969L48.4524 53.3116L48.8075 52.7003L49.028 52.7376L49.2339 53.0538L49.5517 53.2792L49.9067 53.2029L50.2894 53.0051L50.6915 52.95L51.1017 53.2954L51.2671 52.9808L51.8394 53.2192L52.642 53.2759L53.3586 53.5321L53.665 54.3736L54.0088 54.3979L56.0663 55.168L55.8506 55.2167L55.3172 55.4745V55.7679L55.7841 56.1084L56.2073 56.1846L57.2547 56.0954L57.613 55.9284L58.7545 55.0545L59.5846 54.1741L60.7066 53.5986L61.1962 52.9808L61.4783 52.2528L61.7118 51.3449L61.8723 50.4013L61.9453 49.5241L61.8869 47.7779L62.0474 47.2283L62.5776 47.0272L63.1078 46.9251L64.2654 46.4954L65.4068 46.3803L66.9682 46.5133L67.2925 46.8537L67.38 47.2202L67.5876 47.2672L67.8243 47.1537L68.0091 47.0272L68.1939 46.0836L68.3139 46.0366L68.6187 46.1177L68.742 46.0852L69.6305 45.1675L70.3439 44.112L70.6714 42.7955L70.4103 41.0461L69.6288 40.2046L68.4874 40.5289L67.2455 41.265L66.1608 41.6703L66.451 41.1904L67.4319 40.391L67.6443 39.963L68.3885 37.5586L68.1907 37.2732L68.3269 36.9765L68.3593 36.8452L68.3869 36.6538L68.0448 36.5339L67.8778 36.135L67.8745 35.6L68.0042 35.0471L67.1887 34.5899L67.359 34.3775L67.9507 34.264L68.3869 34.1051L68.0853 33.8359L67.0882 33.7646L66.8904 33.6122L66.6488 33.3787L66.3488 33.1809L65.9743 33.1582L66.2321 32.881L66.4591 32.4935L66.5385 32.0298L66.3391 31.579V31.2693L67.1466 31.3083L67.8713 31.7249L69.7391 33.51L70.2012 34.2948L70.4865 35.3584L70.5871 36.7884L70.4557 37.4856L69.8348 38.2784L69.6548 38.8183L69.7002 39.3323L69.8947 39.8495L70.1769 40.2516L70.4946 40.4267L70.767 41.3249L71.02 41.9702L71.3377 42.301L71.7058 42.2264L72.0414 41.5795L72.4386 41.3606L72.0528 40.8531L72.1922 40.4883L72.5473 40.1754L72.8034 39.8203L72.904 39.0583L72.7175 38.2946L72.8861 37.7369L73.4017 36.9295L73.5363 36.6555L73.546 36.409L73.4633 36.2258L73.4423 35.9567ZM51.7648 26.3275L51.4989 26.715L50.4564 27.6959L50.3186 28.0137L49.9149 29.2572L49.8451 29.6626L50.0883 29.8896L50.5472 29.7599L51.0076 29.7453L51.2671 30.3306L51.1665 30.9807L50.8293 31.3553L50.0527 31.7768L49.9927 31.8919L49.9294 32.1465L49.8565 32.2324L49.3214 32.2632L49.2144 32.3038L49.1917 32.5032L49.3004 32.6734L49.4009 32.8956L49.3522 33.2247L49.1674 33.3836L48.8983 33.489L48.681 33.6219L48.6778 33.8376L49.315 34.7617L47.9936 35.5205L47.6061 35.587L47.251 35.3908L46.7808 34.7293L46.4484 34.4699L45.5291 34.3142L43.7586 34.5412L42.8798 34.1343L42.1502 33.5846L41.9005 33.1469L41.9686 32.5194L42.1308 32.3378L42.6269 32.2292L42.8279 32.1205L42.9609 31.8936L43.1425 31.3877L43.29 31.1915L44.0148 30.4635L44.4704 29.5767L44.6212 28.5001L44.412 27.1333L44.2466 26.5366L44.1347 26.0016L44.138 25.46L44.3066 24.8374L44.3731 24.2424L44.6293 23.7414L44.9827 23.4204L45.3378 23.362L45.6912 23.6944L45.641 24.163L45.5356 24.6883L45.7318 25.1796L45.9458 25.2882L46.4063 25.2639L46.6332 25.3757L46.8635 25.5719L47.0726 25.6805L47.2899 25.7178H47.5444L48.0227 25.5881L48.9583 25.0855L49.9003 24.9704L50.865 24.4629L51.3627 24.5294L51.7146 24.8456L51.9091 25.2833L51.9302 25.7843L51.7648 26.3275Z" fill="#116FB8"/>
</svg>
